<svg width="36" height="36" viewBox="0 0 36 36" fill="none" xmlns="http://www.w3.org/2000/svg">
<g opacity="0.3">
<path d="M18 30.5001C11.0964 30.5001 5.49996 24.9036 5.49996 18.0001C5.49996 11.0965 11.0964 5.50008 18 5.50008C24.9035 5.50008 30.5 11.0965 30.5 18.0001C30.5 24.9036 24.9035 30.5001 18 30.5001Z" stroke="#DC6803" stroke-width="1.66667"/>
</g>
<g opacity="0.1">
<path d="M18 34.6667C8.79525 34.6667 1.33333 27.2047 1.33333 18C1.33333 8.79525 8.79525 1.33333 18 1.33333C27.2047 1.33333 34.6667 8.79525 34.6667 18C34.6667 27.2047 27.2047 34.6667 18 34.6667Z" stroke="#DC6803" stroke-width="1.66667"/>
</g>
<g clip-path="url(#clip0_138_2801)">
<path d="M18 14.6667V18.0001M18 21.3334H18.0083M26.3333 18.0001C26.3333 22.6025 22.6023 26.3334 18 26.3334C13.3976 26.3334 9.66663 22.6025 9.66663 18.0001C9.66663 13.3977 13.3976 9.66675 18 9.66675C22.6023 9.66675 26.3333 13.3977 26.3333 18.0001Z" stroke="#DC6803" stroke-width="1.66667" stroke-linecap="round" stroke-linejoin="round"/>
</g>
<defs>
<clipPath id="clip0_138_2801">
<rect width="20" height="20" fill="white" transform="translate(8 8)"/>
</clipPath>
</defs>
</svg>
