<svg width="38" height="38" viewBox="0 0 38 38" fill="none" xmlns="http://www.w3.org/2000/svg">
<g opacity="0.3">
<path d="M19 32C11.8203 32 6 26.1797 6 19C6 11.8203 11.8203 6 19 6C26.1797 6 32 11.8203 32 19C32 26.1797 26.1797 32 19 32Z" stroke="#0BA5EC" stroke-width="2"/>
</g>
<g opacity="0.1">
<path d="M19 37C9.05888 37 1 28.9411 1 19C1 9.05888 9.05888 1 19 1C28.9411 1 37 9.05888 37 19C37 28.9411 28.9411 37 19 37Z" stroke="#0BA5EC" stroke-width="2"/>
</g>
<g clip-path="url(#clip0_138_2649)">
<path d="M19 22.3334V19.0001M19 15.6667H19.0083M27.3333 19.0001C27.3333 23.6025 23.6023 27.3334 19 27.3334C14.3976 27.3334 10.6666 23.6025 10.6666 19.0001C10.6666 14.3977 14.3976 10.6667 19 10.6667C23.6023 10.6667 27.3333 14.3977 27.3333 19.0001Z" stroke="#0BA5EC" stroke-width="1.66667" stroke-linecap="round" stroke-linejoin="round"/>
</g>
<defs>
<clipPath id="clip0_138_2649">
<rect width="20" height="20" fill="white" transform="translate(9 9)"/>
</clipPath>
</defs>
</svg>
